PathFileType	4	(X/Y/Z)	./resultDataOpenSim/trcMotMarkerGrf/sub09/qtm-14-02.trc
DataRate	CameraRate	NumFrames	NumMarkers	Units	OrigDataRate	OrigDataStartFrame	OrigNumFrames
250.000000	250.000000	13	24	m	250.000000	63	496
Frame#	Time	L.Toe.Tip			R.Toe.Tip			L.Ankle.Lat			R.Ankle.Lat			L.Ankle.Med			R.Ankle.Med			L.Heel			R.Heel			L.Knee.Lat			R.Knee.Lat			L.Knee.Med			R.Knee.Med			L.Thigh.Upper			R.Thigh.Upper			L.ASIS			R.ASIS			V.Sacral			L.Acromium			R.Acromium			C7			L.Elbow			R.Elbow			L.Wrist.Lat			R.Wrist.Lat
		X1	Y1	Z1	X2	Y2	Z2	X3	Y3	Z3	X4	Y4	Z4	X5	Y5	Z5	X6	Y6	Z6	X7	Y7	Z7	X8	Y8	Z8	X9	Y9	Z9	X10	Y10	Z10	X11	Y11	Z11	X12	Y12	Z12	X13	Y13	Z13	X14	Y14	Z14	X15	Y15	Z15	X16	Y16	Z16	X17	Y17	Z17	X18	Y18	Z18	X19	Y19	Z19	X20	Y20	Z20	X21	Y21	Z21	X22	Y22	Z22	X23	Y23	Z23	X24	Y24	Z24

63	0.248	-1.3616574	0.09064713	-0.035476346	-0.6213057	0.039203286	0.07577586	-1.381446	0.24952553	-0.073880942	-0.76969261	0.053346926	0.10888708	-1.3507535	0.23216925	0.017665233	-0.75588568	0.093451938	0.019433748	-1.4411563	0.29250533	-0.01996317	-0.83683527	0.030909774	0.059056658	-1.0115377	0.43139892	-0.11591683	-0.72425749	0.50330893	0.17916458	-0.99862734	0.41651463	0.0086104426	-0.73886013	0.49460093	0.053484337	-0.9714907	0.83688686	-0.12583791	-0.91547332	0.86069053	0.24178601	-0.87340753	0.92354006	-0.081852363	-0.84624471	0.94830868	0.15798102	-1.030423	0.98991976	0.054038376	-0.86586101	1.3927536	-0.10752123	-0.88155837	1.3875722	0.22130921	-0.93956757	1.4433747	0.056167322	-0.98429353	1.038447	-0.1890696	-1.0270875	1.0530807	0.28134545	-0.75329762	0.89381821	-0.19370445	-0.92880921	0.80131255	0.30832547
64	0.252	-1.348653	0.09301875	-0.036934103	-0.62132783	0.039194953	0.075781509	-1.3689158	0.25178901	-0.073741465	-0.76980955	0.053335317	0.10893894	-1.3376359	0.23402068	0.017571994	-0.75572171	0.093449798	0.019473233	-1.4288083	0.29447462	-0.01944718	-0.83690819	0.030913008	0.059004193	-0.99847854	0.43158206	-0.11537879	-0.72177917	0.50314095	0.1798064	-0.98629888	0.41681608	0.0093186553	-0.73627084	0.49424957	0.053570474	-0.96449349	0.83768779	-0.12548421	-0.90991709	0.86216561	0.24204575	-0.86745012	0.92475428	-0.08159656	-0.84021997	0.94962242	0.15817709	-1.024229	0.9911646	0.054171363	-0.86007509	1.3939235	-0.1075219	-0.87496982	1.38883	0.22137598	-0.93342777	1.4447143	0.05648132	-0.97882126	1.0396785	-0.18848089	-1.0198581	1.0539792	0.28215949	-0.74923615	0.89294763	-0.1935741	-0.91987824	0.80255547	0.30805133
65	0.256	-1.3352182	0.095112312	-0.038288255	-0.62136343	0.039187017	0.075814269	-1.3561334	0.25373257	-0.073616816	-0.76993743	0.053318789	0.10899645	-1.3243207	0.23565788	0.017493873	-0.75558251	0.093463411	0.019534468	-1.4163316	0.29604967	-0.019019995	-0.83698391	0.03092959	0.058962644	-0.98548225	0.43196791	-0.11478267	-0.71937148	0.50298949	0.18040601	-0.97372598	0.41724833	0.010037589	-0.733774	0.49396611	0.053734624	-0.95745378	0.83861252	-0.12533397	-0.90405487	0.86368145	0.24231193	-0.86156365	0.92604541	-0.081348182	-0.83407651	0.95099396	0.15834216	-1.018176	0.99248959	0.054322856	-0.85438844	1.395202	-0.10756856	-0.86842911	1.3901436	0.22142659	-0.92732267	1.4460939	0.056786735	-0.97336474	1.0409789	-0.1878437	-1.0126743	1.0549297	0.28296213	-0.74527822	0.89212279	-0.19344899	-0.91094255	0.80387635	0.30772747
66	0.26	-1.3214056	0.096921941	-0.039534299	-0.62141126	0.03918048	0.075875924	-1.3431101	0.25534868	-0.073510635	-0.77008251	0.053310687	0.10907219	-1.3111012	0.2370481	0.017508094	-0.75547326	0.093500132	0.01962403	-1.4037892	0.29720748	-0.018604134	-0.83706005	0.030958377	0.058941048	-0.97260539	0.43251358	-0.11411579	-0.71686827	0.50280615	0.18087068	-0.9608857	0.41781012	0.010743575	-0.73134198	0.49376319	0.054011847	-0.95040064	0.8396213	-0.12549191	-0.89808262	0.86524203	0.24257774	-0.85573555	0.92741917	-0.08110067	-0.82779059	0.95241638	0.15848944	-1.012221	0.99388635	0.05451088	-0.84878889	1.396577	-0.10763919	-0.86195078	1.3915201	0.22146066	-0.92125409	1.4475016	0.057080077	-0.96790866	1.0423459	-0.18713944	-1.0055359	1.0559332	0.28375772	-0.74142173	0.89135624	-0.19333107	-0.9019982	0.80528588	0.30737278
67	0.264	-1.3072491	0.098468229	-0.04067337	-0.6214668	0.039176521	0.075964095	-1.3298741	0.25665081	-0.07342917	-0.77023302	0.053314676	0.10916169	-1.298039	0.23818028	0.017600634	-0.75538621	0.093560772	0.019741505	-1.3912327	0.29793476	-0.01808674	-0.83713213	0.030996314	0.058938306	-0.9598639	0.43319807	-0.11339566	-0.71429711	0.50261144	0.18119985	-0.94781747	0.41847815	0.0114389	-0.72898483	0.49363735	0.05439322	-0.9433857	0.84072091	-0.12581069	-0.89214434	0.86684182	0.24284623	-0.84992972	0.92888458	-0.08084123	-0.82144093	0.95387458	0.15863751	-1.0063154	0.99533104	0.054740041	-0.84324644	1.3980217	-0.10771015	-0.85553999	1.3929609	0.22147749	-0.91522474	1.4489341	0.057352922	-0.96247751	1.0437786	-0.18639149	-0.99845045	1.056991	0.28455207	-0.73766742	0.8906535	-0.19322146	-0.89302971	0.80680224	0.30701352
68	0.268	-1.2927653	0.099774354	-0.041707576	-0.62152467	0.039175243	0.076074687	-1.3164664	0.2576572	-0.073380916	-0.77036738	0.053329276	0.10924886	-1.2850073	0.23906352	0.017719867	-0.7553076	0.093639879	0.019879502	-1.378643	0.29827621	-0.017521522	-0.83719363	0.031041066	0.05894475	-0.94716617	0.43406262	-0.11268772	-0.71176751	0.50242969	0.18146056	-0.93453734	0.41923994	0.012172213	-0.7266981	0.4935712	0.05482765	-0.936454	0.84194187	-0.12606095	-0.88628728	0.86845845	0.24312207	-0.84409258	0.93044293	-0.080559151	-0.81524183	0.95534647	0.1587956	-1.0004263	0.99681975	0.055019889	-0.83774382	1.3995164	-0.10777202	-0.8492006	1.394461	0.22148406	-0.90923699	1.4504015	0.057589504	-0.95709317	1.0452746	-0.18562129	-0.99143347	1.0581039	0.28535149	-0.73401287	0.89001549	-0.19311428	-0.88402136	0.8084354	0.30666838
69	0.272	-1.2779596	0.10085046	-0.042636767	-0.62158076	0.039176073	0.076201099	-1.3029263	0.2583745	-0.073367945	-0.77047223	0.05335197	0.10932066	-1.2718889	0.23971785	0.017853852	-0.75522796	0.09372913	0.020027022	-1.3659301	0.29834263	-0.017175731	-0.83723933	0.031091905	0.058950198	-0.93437331	0.43516927	-0.11205864	-0.70930258	0.50223197	0.18169282	-0.92109207	0.42011805	0.012982654	-0.72442424	0.49354207	0.055223016	-0.92961116	0.84329856	-0.12614239	-0.88054244	0.87006543	0.24339795	-0.83817961	0.93209017	-0.08025288	-0.809472	0.95681302	0.15895439	-0.99454756	0.99835992	0.055356818	-0.83228421	1.4010557	-0.10782766	-0.84293943	1.3960118	0.22149327	-0.90329261	1.4519259	0.057768748	-0.95176678	1.0468332	-0.18483901	-0.98450164	1.0592709	0.28616048	-0.73045153	0.88944251	-0.19299778	-0.8749748	0.81017953	0.30633983
70	0.276	-1.2628306	0.10170276	-0.043465284	-0.62163325	0.039178801	0.0763333	-1.2892769	0.25880365	-0.073382652	-0.77055531	0.053380511	0.1093749	-1.2587336	0.24015453	0.018035312	-0.75514511	0.093822196	0.020173905	-1.3530168	0.29821654	-0.017276583	-0.83726847	0.0311489	0.058950286	-0.92147138	0.43653196	-0.11151852	-0.70681365	0.50196957	0.18187263	-0.90765419	0.42116708	0.013831207	-0.72210521	0.49353111	0.055507069	-0.92285318	0.84477754	-0.12609429	-0.87502182	0.87165274	0.24365287	-0.83219917	0.93382076	-0.079921464	-0.80423591	0.95827098	0.15910789	-0.98869142	0.99994131	0.055734763	-0.82687486	1.4026416	-0.10788225	-0.83675989	1.3976062	0.2215134	-0.89739281	1.4535339	0.057872198	-0.94650349	1.0484568	-0.18405049	-0.97765851	1.0604857	0.28697725	-0.72698027	0.88893591	-0.19286341	-0.86591145	0.81202257	0.30602097
71	0.28	-1.2473788	0.10234039	-0.044206646	-0.6216819	0.039183101	0.076460936	-1.275525	0.25894788	-0.073418379	-0.77064049	0.053411508	0.10941835	-1.2457285	0.24035506	0.018306731	-0.75506226	0.093917834	0.020313171	-1.3399153	0.29785502	-0.017735024	-0.83728379	0.031212859	0.05894657	-0.90864231	0.43809481	-0.11101037	-0.70424116	0.50164243	0.18197702	-0.89440042	0.42243145	0.014630439	-0.71977494	0.49352684	0.05570018	-0.91621204	0.84634866	-0.12601027	-0.87001372	0.87322314	0.24385157	-0.82622548	0.93562524	-0.079560457	-0.79927924	0.95973037	0.15928247	-0.98286544	1.001546	0.056131872	-0.82151837	1.4042766	-0.10793794	-0.83065668	1.3992409	0.22153972	-0.89153499	1.4552271	0.057900024	-0.94130408	1.050145	-0.18326129	-0.97088017	1.0617342	0.28778861	-0.72359895	0.88849895	-0.19271314	-0.85685371	0.81396181	0.30570763
72	0.284	-1.2316144	0.10276404	-0.044874336	-0.62172735	0.039187781	0.076578644	-1.2616672	0.25881512	-0.073477437	-0.77074531	0.053440341	0.10945893	-1.2328632	0.24029862	0.018647549	-0.75498726	0.094016677	0.020443274	-1.3267027	0.29714586	-0.01825653	-0.83728939	0.031285677	0.058941707	-0.89604394	0.43975146	-0.11043125	-0.70170286	0.50131977	0.18205894	-0.88132153	0.42391871	0.015334325	-0.71755104	0.49352185	0.055881425	-0.90973998	0.84798332	-0.12596638	-0.86594152	0.87477184	0.24394475	-0.82033765	0.93749244	-0.079169994	-0.79420953	0.96119509	0.15951309	-0.9770561	1.0031715	0.056549327	-0.81621528	1.4059595	-0.10799653	-0.82462536	1.4009163	0.22156346	-0.88570866	1.4569555	0.057884771	-0.93616416	1.0518893	-0.18247418	-0.96412224	1.0629992	0.28857389	-0.72030184	0.88813351	-0.19255624	-0.84780182	0.81600508	0.30539739
73	0.288	-1.2155562	0.10296561	-0.045470672	-0.62177401	0.039191755	0.076690587	-1.2476927	0.25841428	-0.073566486	-0.7708636	0.05346208	0.10949882	-1.2195678	0.24001164	0.018871658	-0.75493236	0.094115347	0.020571433	-1.313431	0.29603314	-0.018688368	-0.83729028	0.031367699	0.05893651	-0.88355028	0.44143811	-0.10971455	-0.69938969	0.50107097	0.18220044	-0.86834295	0.4256159	0.01597561	-0.71552103	0.49350536	0.056094862	-0.90342118	0.84967104	-0.12595245	-0.86286686	0.87628455	0.24392596	-0.81455026	0.93941181	-0.078754993	-0.78887237	0.96265313	0.1597991	-0.97123958	1.004816	0.056999015	-0.81096348	1.4076815	-0.10806179	-0.81866182	1.4026306	0.22158435	-0.8798992	1.4586513	0.057872514	-0.93107668	1.053676	-0.18168613	-0.95734966	1.0642733	0.28931898	-0.71708031	0.8878365	-0.19240194	-0.83873417	0.81815777	0.30508199
74	0.292	-1.1992258	0.10294494	-0.045990864	-0.62183539	0.039196533	0.0768137	-1.2335906	0.25774634	-0.073682991	-0.77098107	0.053473643	0.10954351	-1.205108	0.23954524	0.018729121	-0.75490946	0.094208401	0.020710814	-1.3000933	0.29452947	-0.019093537	-0.83729086	0.031455731	0.058933	-0.87090713	0.4432237	-0.10892184	-0.69734954	0.50089097	0.18240902	-0.85557799	0.42749653	0.016633316	-0.71366688	0.4934641	0.05632382	-0.89708744	0.85142057	-0.12586818	-0.85993739	0.8777605	0.24390483	-0.80882103	0.94136827	-0.078319932	-0.78336334	0.96409074	0.16011244	-0.9654079	1.006464	0.057472351	-0.80575179	1.4094237	-0.1081364	-0.81274242	1.4043739	0.22160216	-0.87409557	1.4602921	0.05788427	-0.92603629	1.0554978	-0.18088928	-0.95055535	1.0655668	0.29002461	-0.71393123	0.88760346	-0.19225818	-0.82964066	0.82041264	0.30475266
75	0.296	-1.1826536	0.10270979	-0.046428164	-0.62193379	0.039209118	0.076974404	-1.2193536	0.25680595	-0.073815963	-0.77111981	0.053483271	0.10962107	-1.1895993	0.23890482	0.018246318	-0.7549202	0.09429593	0.020868557	-1.2866621	0.29266041	-0.019565964	-0.83729416	0.031547061	0.058937136	-0.85809579	0.44521419	-0.10817648	-0.6955131	0.50073441	0.1826253	-0.84320824	0.42951636	0.017364499	-0.71190902	0.49339297	0.056533398	-0.89052792	0.85323796	-0.12563919	-0.85596762	0.87922387	0.24402676	-0.80310105	0.94334619	-0.077868577	-0.77780864	0.96550448	0.16043313	-0.9595765	1.0081076	0.057942117	-0.80056066	1.4111666	-0.10821999	-0.80683323	1.4061308	0.22160811	-0.86829422	1.4619003	0.057909821	-0.92104109	1.0573573	-0.1800754	-0.94374431	1.0668928	0.2906969	-0.71085677	0.8874335	-0.19213301	-0.8205432	0.82274673	0.30441136
